<svg xmlns="http://www.w3.org/2000/svg" viewBox="0 0 200 200" fill="none">
  <defs>
    <linearGradient id="bg" x1="0" x2="1" y1="0" y2="1">
      <stop offset="0" stop-color="#fff4ef"/>
      <stop offset="1" stop-color="#ffe1ec"/>
    </linearGradient>
  </defs>
  <rect width="200" height="200" rx="40" fill="url(#bg)"/>
  <circle cx="101" cy="94" r="48" fill="#ffd8c8"/>
  <path d="M57 86c4-38 32-58 61-58 31 0 53 20 59 49-12-4-22-10-33-16-17 15-45 26-84 25h-3Z" fill="#301f25"/>
  <path d="M48 93c6 49 42 76 53 76s48-21 54-76c-2 27-16 50-33 63-10 8-28 8-39 0-18-13-31-35-35-63Z" fill="#382b32" opacity=".18"/>
  <circle cx="82" cy="96" r="6" fill="#754a34"/>
  <circle cx="121" cy="96" r="6" fill="#754a34"/>
  <path d="M92 122c9 8 18 8 27 0" stroke="#ee8da6" stroke-linecap="round" stroke-width="5"/>
  <path d="M55 89c6 56 36 87 45 87 11 0 45-27 50-87-10 20-33 39-53 39-18 0-32-6-42-19Z" fill="#ffd8c8"/>
  <path d="M46 92c0 0 7-33 34-48 26-14 64-9 84 16-10-41-42-54-67-54-35 0-63 29-63 68 0 22 8 39 15 50-4-14-3-23-3-32Z" fill="#261a1f"/>
</svg>
